<mxfile host="Electron" modified="2023-05-16T13:26:26.322Z" agent="Mozilla/5.0 (Windows NT 10.0; Win64; x64) AppleWebKit/537.36 (KHTML, like Gecko) draw.io/21.2.1 Chrome/112.0.5615.87 Electron/24.1.2 Safari/537.36" etag="09bz86MVoCK__kix_f7m" version="21.2.1" type="device">
  <diagram name="Page-1" id="c4acf3e9-155e-7222-9cf6-157b1a14988f">
    <mxGraphModel dx="345" dy="737" grid="1" gridSize="10" guides="1" tooltips="1" connect="1" arrows="1" fold="1" page="1" pageScale="1" pageWidth="850" pageHeight="1100" background="none" math="0" shadow="0">
      <root>
        <mxCell id="0" />
        <mxCell id="1" parent="0" />
        <mxCell id="17acba5748e5396b-1" value="server" style="shape=umlFrame;whiteSpace=wrap;html=1;rounded=0;shadow=0;comic=0;labelBackgroundColor=none;strokeWidth=1;fontFamily=Verdana;fontSize=10;align=center;" parent="1" vertex="1">
          <mxGeometry x="870" y="19" width="820" height="621" as="geometry" />
        </mxCell>
        <mxCell id="vYdNc_PE8MDjh0I0QIps-7" value="Parser" style="swimlane;fontStyle=1;align=center;verticalAlign=top;childLayout=stackLayout;horizontal=1;startSize=26;horizontalStack=0;resizeParent=1;resizeParentMax=0;resizeLast=0;collapsible=1;marginBottom=0;" parent="1" vertex="1">
          <mxGeometry x="1002" y="160" width="230" height="160" as="geometry" />
        </mxCell>
        <mxCell id="vYdNc_PE8MDjh0I0QIps-8" value="- qsl: QStringList" style="text;strokeColor=none;fillColor=none;align=left;verticalAlign=top;spacingLeft=4;spacingRight=4;overflow=hidden;rotatable=0;points=[[0,0.5],[1,0.5]];portConstraint=eastwest;" parent="vYdNc_PE8MDjh0I0QIps-7" vertex="1">
          <mxGeometry y="26" width="230" height="26" as="geometry" />
        </mxCell>
        <mxCell id="vYdNc_PE8MDjh0I0QIps-9" value="" style="line;strokeWidth=1;fillColor=none;align=left;verticalAlign=middle;spacingTop=-1;spacingLeft=3;spacingRight=3;rotatable=0;labelPosition=right;points=[];portConstraint=eastwest;strokeColor=inherit;" parent="vYdNc_PE8MDjh0I0QIps-7" vertex="1">
          <mxGeometry y="52" width="230" height="8" as="geometry" />
        </mxCell>
        <mxCell id="vYdNc_PE8MDjh0I0QIps-10" value="+ parse(): QString&#xa;+ reg(QStringList): bool&#xa;+ auth(QStringList): QString&#xa;+ check_schedule(QStringList): QString&#xa;+ reschedule(QStringList): bool&#xa;+ select_exception(QStringList): bool" style="text;strokeColor=none;fillColor=none;align=left;verticalAlign=top;spacingLeft=4;spacingRight=4;overflow=hidden;rotatable=0;points=[[0,0.5],[1,0.5]];portConstraint=eastwest;" parent="vYdNc_PE8MDjh0I0QIps-7" vertex="1">
          <mxGeometry y="60" width="230" height="100" as="geometry" />
        </mxCell>
        <mxCell id="vYdNc_PE8MDjh0I0QIps-11" value="MyPostgresDBDestroyer" style="swimlane;fontStyle=1;align=center;verticalAlign=top;childLayout=stackLayout;horizontal=1;startSize=26;horizontalStack=0;resizeParent=1;resizeParentMax=0;resizeLast=0;collapsible=1;marginBottom=0;" parent="1" vertex="1">
          <mxGeometry x="1002" y="400" width="200" height="86" as="geometry" />
        </mxCell>
        <mxCell id="vYdNc_PE8MDjh0I0QIps-12" value="- p_instance: MyPostgresDB*" style="text;strokeColor=none;fillColor=none;align=left;verticalAlign=top;spacingLeft=4;spacingRight=4;overflow=hidden;rotatable=0;points=[[0,0.5],[1,0.5]];portConstraint=eastwest;" parent="vYdNc_PE8MDjh0I0QIps-11" vertex="1">
          <mxGeometry y="26" width="200" height="26" as="geometry" />
        </mxCell>
        <mxCell id="vYdNc_PE8MDjh0I0QIps-13" value="" style="line;strokeWidth=1;fillColor=none;align=left;verticalAlign=middle;spacingTop=-1;spacingLeft=3;spacingRight=3;rotatable=0;labelPosition=right;points=[];portConstraint=eastwest;strokeColor=inherit;" parent="vYdNc_PE8MDjh0I0QIps-11" vertex="1">
          <mxGeometry y="52" width="200" height="8" as="geometry" />
        </mxCell>
        <mxCell id="vYdNc_PE8MDjh0I0QIps-14" value="+ initialize(MyPostgresDB*): void" style="text;strokeColor=none;fillColor=none;align=left;verticalAlign=top;spacingLeft=4;spacingRight=4;overflow=hidden;rotatable=0;points=[[0,0.5],[1,0.5]];portConstraint=eastwest;" parent="vYdNc_PE8MDjh0I0QIps-11" vertex="1">
          <mxGeometry y="60" width="200" height="26" as="geometry" />
        </mxCell>
        <mxCell id="vYdNc_PE8MDjh0I0QIps-15" value="MyTcpServer" style="swimlane;fontStyle=1;align=center;verticalAlign=top;childLayout=stackLayout;horizontal=1;startSize=26;horizontalStack=0;resizeParent=1;resizeParentMax=0;resizeLast=0;collapsible=1;marginBottom=0;" parent="1" vertex="1">
          <mxGeometry x="1322" y="160" width="230" height="160" as="geometry" />
        </mxCell>
        <mxCell id="vYdNc_PE8MDjh0I0QIps-16" value="- mTcpServer: QTcpServer*&#xa;- mTcpSocket: QMap&lt;int, QTcpSocket*&gt;&#xa;- server_status: int" style="text;strokeColor=none;fillColor=none;align=left;verticalAlign=top;spacingLeft=4;spacingRight=4;overflow=hidden;rotatable=0;points=[[0,0.5],[1,0.5]];portConstraint=eastwest;" parent="vYdNc_PE8MDjh0I0QIps-15" vertex="1">
          <mxGeometry y="26" width="230" height="54" as="geometry" />
        </mxCell>
        <mxCell id="vYdNc_PE8MDjh0I0QIps-17" value="" style="line;strokeWidth=1;fillColor=none;align=left;verticalAlign=middle;spacingTop=-1;spacingLeft=3;spacingRight=3;rotatable=0;labelPosition=right;points=[];portConstraint=eastwest;strokeColor=inherit;" parent="vYdNc_PE8MDjh0I0QIps-15" vertex="1">
          <mxGeometry y="80" width="230" height="10" as="geometry" />
        </mxCell>
        <mxCell id="vYdNc_PE8MDjh0I0QIps-18" value="public slots:&#xa;    slotNewConnection(): void&#xa;    slotClientDisconnected(): void&#xa;    slotServerRead(): void " style="text;strokeColor=none;fillColor=none;align=left;verticalAlign=top;spacingLeft=4;spacingRight=4;overflow=hidden;rotatable=0;points=[[0,0.5],[1,0.5]];portConstraint=eastwest;" parent="vYdNc_PE8MDjh0I0QIps-15" vertex="1">
          <mxGeometry y="90" width="230" height="70" as="geometry" />
        </mxCell>
        <mxCell id="vYdNc_PE8MDjh0I0QIps-19" value="MyPostgresDB" style="swimlane;fontStyle=1;align=center;verticalAlign=top;childLayout=stackLayout;horizontal=1;startSize=26;horizontalStack=0;resizeParent=1;resizeParentMax=0;resizeLast=0;collapsible=1;marginBottom=0;" parent="1" vertex="1">
          <mxGeometry x="1322" y="400" width="200" height="170" as="geometry">
            <mxRectangle x="600" y="440" width="130" height="30" as="alternateBounds" />
          </mxGeometry>
        </mxCell>
        <mxCell id="vYdNc_PE8MDjh0I0QIps-20" value="- p_instance: MyPostgresDB*&#xa;- destroyer: MyPostgresDBDestroyer&#xa;- db: QSqlDatabase" style="text;strokeColor=none;fillColor=none;align=left;verticalAlign=top;spacingLeft=4;spacingRight=4;overflow=hidden;rotatable=0;points=[[0,0.5],[1,0.5]];portConstraint=eastwest;" parent="vYdNc_PE8MDjh0I0QIps-19" vertex="1">
          <mxGeometry y="26" width="200" height="54" as="geometry" />
        </mxCell>
        <mxCell id="vYdNc_PE8MDjh0I0QIps-21" value="" style="line;strokeWidth=1;fillColor=none;align=left;verticalAlign=middle;spacingTop=-1;spacingLeft=3;spacingRight=3;rotatable=0;labelPosition=right;points=[];portConstraint=eastwest;strokeColor=inherit;" parent="vYdNc_PE8MDjh0I0QIps-19" vertex="1">
          <mxGeometry y="80" width="200" height="10" as="geometry" />
        </mxCell>
        <mxCell id="vYdNc_PE8MDjh0I0QIps-22" value="+ getInstance(): MyPostgresDB*&#xa;+ add_user(QStringList): bool&#xa;+ auth_user(QStringList): QString&#xa;+ view_schedule(QStringList): QString&#xa;+ sendQuery(QString): bool" style="text;strokeColor=none;fillColor=none;align=left;verticalAlign=top;spacingLeft=4;spacingRight=4;overflow=hidden;rotatable=0;points=[[0,0.5],[1,0.5]];portConstraint=eastwest;" parent="vYdNc_PE8MDjh0I0QIps-19" vertex="1">
          <mxGeometry y="90" width="200" height="80" as="geometry" />
        </mxCell>
        <mxCell id="vYdNc_PE8MDjh0I0QIps-23" value="" style="endArrow=classic;html=1;rounded=0;exitX=1;exitY=0.5;exitDx=0;exitDy=0;entryX=0;entryY=0.5;entryDx=0;entryDy=0;" parent="1" source="vYdNc_PE8MDjh0I0QIps-8" target="vYdNc_PE8MDjh0I0QIps-20" edge="1">
          <mxGeometry width="50" height="50" relative="1" as="geometry">
            <mxPoint x="1252" y="240" as="sourcePoint" />
            <mxPoint x="1302" y="350" as="targetPoint" />
          </mxGeometry>
        </mxCell>
        <mxCell id="vYdNc_PE8MDjh0I0QIps-24" value="" style="endArrow=classic;html=1;rounded=0;entryX=1;entryY=0.5;entryDx=0;entryDy=0;exitX=0;exitY=0.5;exitDx=0;exitDy=0;" parent="1" source="vYdNc_PE8MDjh0I0QIps-16" target="vYdNc_PE8MDjh0I0QIps-8" edge="1">
          <mxGeometry width="50" height="50" relative="1" as="geometry">
            <mxPoint x="1262" y="250" as="sourcePoint" />
            <mxPoint x="1312" y="200" as="targetPoint" />
          </mxGeometry>
        </mxCell>
        <mxCell id="vYdNc_PE8MDjh0I0QIps-25" value="QObject" style="swimlane;fontStyle=1;align=center;verticalAlign=top;childLayout=stackLayout;horizontal=1;startSize=26;horizontalStack=0;resizeParent=1;resizeParentMax=0;resizeLast=0;collapsible=1;marginBottom=0;" parent="1" vertex="1" collapsed="1">
          <mxGeometry x="1142" y="80" width="90" height="30" as="geometry">
            <mxRectangle x="320" y="570" width="200" height="34" as="alternateBounds" />
          </mxGeometry>
        </mxCell>
        <mxCell id="vYdNc_PE8MDjh0I0QIps-27" value="" style="line;strokeWidth=1;fillColor=none;align=left;verticalAlign=middle;spacingTop=-1;spacingLeft=3;spacingRight=3;rotatable=0;labelPosition=right;points=[];portConstraint=eastwest;strokeColor=inherit;" parent="vYdNc_PE8MDjh0I0QIps-25" vertex="1">
          <mxGeometry y="26" width="200" height="8" as="geometry" />
        </mxCell>
        <mxCell id="vYdNc_PE8MDjh0I0QIps-29" value="" style="endArrow=block;html=1;rounded=0;exitX=0;exitY=0.5;exitDx=0;exitDy=0;entryX=1;entryY=0.5;entryDx=0;entryDy=0;endFill=0;" parent="1" source="vYdNc_PE8MDjh0I0QIps-16" target="vYdNc_PE8MDjh0I0QIps-25" edge="1">
          <mxGeometry width="50" height="50" relative="1" as="geometry">
            <mxPoint x="1202" y="570" as="sourcePoint" />
            <mxPoint x="1252" y="520" as="targetPoint" />
          </mxGeometry>
        </mxCell>
        <mxCell id="vYdNc_PE8MDjh0I0QIps-31" value="&amp;lt;&amp;lt;friend&amp;gt;&amp;gt;" style="endArrow=open;endSize=12;dashed=1;html=1;rounded=0;entryX=0;entryY=0.5;entryDx=0;entryDy=0;exitX=1;exitY=0.5;exitDx=0;exitDy=0;" parent="1" source="vYdNc_PE8MDjh0I0QIps-12" target="vYdNc_PE8MDjh0I0QIps-20" edge="1">
          <mxGeometry width="160" relative="1" as="geometry">
            <mxPoint x="1172" y="280" as="sourcePoint" />
            <mxPoint x="1262" y="480" as="targetPoint" />
          </mxGeometry>
        </mxCell>
      </root>
    </mxGraphModel>
  </diagram>
</mxfile>
